<svg width="36" height="36" viewBox="0 0 36 36" fill="none" xmlns="http://www.w3.org/2000/svg">
<path d="M17.505 28.1925C17.1886 28.5085 16.7597 28.686 16.3125 28.686C15.8653 28.686 15.4364 28.5085 15.12 28.1925L5.55748 18.63C5.24147 18.3136 5.06396 17.8847 5.06396 17.4375C5.06396 16.9903 5.24147 16.5614 5.55748 16.245L15.12 6.6825C15.4401 6.38458 15.8632 6.22234 16.3004 6.2299C16.7376 6.23745 17.1549 6.4142 17.4645 6.723C17.7733 7.0326 17.95 7.44987 17.9576 7.88708C17.9651 8.32429 17.8029 8.74741 17.505 9.0675L10.8225 15.75H27.5625C28.01 15.75 28.4393 15.9278 28.7557 16.2443C29.0722 16.5607 29.25 16.9899 29.25 17.4375C29.25 17.885 29.0722 18.3143 28.7557 18.6307C28.4393 18.9472 28.01 19.125 27.5625 19.125H10.8225L17.505 25.8075C17.821 26.1239 17.9985 26.5528 17.9985 27C17.9985 27.4472 17.821 27.8761 17.505 28.1925Z" fill="#322D26"/>
</svg>
