<svg width="41" height="40" viewBox="0 0 41 40" fill="none" xmlns="http://www.w3.org/2000/svg">
<g clip-path="url(#clip0_193_149)">
<path d="M38.048 7.5C39.4267 7.5 40.5547 8.625 40.5547 10V32.5C40.5547 33.875 39.4267 35 38.048 35H2.95466C1.576 35 0.447998 33.875 0.447998 32.5V10C0.447998 8.625 1.576 7.5 2.95466 7.5C2.95466 6.125 4.08266 5 5.46133 5H15.488C16.8667 5 17.9947 6.125 17.9947 7.5H38.048ZM26.768 30C31.6309 30 35.5413 26.1 35.5413 21.25C35.5413 16.4 31.6309 12.5 26.768 12.5C21.9051 12.5 17.9947 16.4 17.9947 21.25C17.9947 26.1 21.9051 30 26.768 30ZM33.0347 21.25C33.0347 24.7 30.2021 27.5 26.768 27.5C23.3339 27.5 20.5013 24.675 20.5013 21.25C20.5013 17.825 23.3339 15 26.768 15C30.2021 15 33.0347 17.825 33.0347 21.25ZM15.488 12.5V10H5.46133V12.5H15.488Z" fill="#322D26"/>
</g>
<defs>
<clipPath id="clip0_193_149">
<rect width="40.1067" height="40" fill="white" transform="translate(0.447998)"/>
</clipPath>
</defs>
</svg>
